# xmcd
#
# Track frame offsets:
#	150
#	20863
#	38885
#	56933
#	76810
#	97590
#	115953
#	134385
#	152353
#	168255
#	191443
#	210680
#
# Disc length: 3087 seconds
#
# Revision: 0
# Processed by: cddbd v1.5.2PL0 Copyright (c) Steve Scherf et al.
# Submitted via: EasyCDDAExtractor 10.0.5.1
#
DISCID=960c0d0c
DTITLE=Pyruz - New Love
DYEAR=2005
DGENRE=Pop/Funk
TTITLE0=Ageh Begi
TTITLE1=Goleh Pooneh
TTITLE2=Baby Joon
TTITLE3=Mi Vida
TTITLE4=Khabhayeh Khiali
TTITLE5=Nazanin
TTITLE6=Khooneh
TTITLE7=Mojassameh
TTITLE8=Ghesseh
TTITLE9=Miravam
TTITLE10=Parastoo
TTITLE11=Yesterday -ji
EXTD=
EXTT0=
EXTT1=
EXTT2=
EXTT3=
EXTT4=
EXTT5=
EXTT6=
EXTT7=
EXTT8=
EXTT9=
EXTT10=
EXTT11=
PLAYORDER=
